<svg xmlns="http://www.w3.org/2000/svg" style="display: none;">

    <symbol id="icon-email">
      <g>
      	<polygon points="50.5,60.7 42.9,54.9 33.5,64.6 67.5,64.6 58.1,54.9 	"/>
      	<polygon points="70.8,39.1 70.8,34.4 30.2,34.4 30.2,39.1 50.5,54.7 	"/>
      	<polygon points="70.8,61.1 70.8,45.1 61.9,51.9 	"/>
      	<path d="M50,6C25.7,6,6,25.7,6,50s19.7,44,44,44s44-19.7,44-44S74.3,6,50,6z M75.5,69.4h-50V29.6h50V69.4z"/>
      	<polygon points="30.2,45.1 30.2,61.1 39.1,51.9 	"/>
      </g>
    </symbol>

    <symbol id="icon-github">
      <path d="M50,6C25.7,6,6,25.7,6,49.9c0,19.4,12.6,35.8,30.1,41.6c2.2,0.4,3-1,3-2.1c0-1,0-3.8-0.1-7.5
      	C26.8,84.6,24.2,76,24.2,76c-2-5.1-4.9-6.4-4.9-6.4c-4-2.7,0.3-2.7,0.3-2.7c4.4,0.3,6.7,4.5,6.7,4.5c3.9,6.7,10.3,4.8,12.8,3.6
      	c0.4-2.8,1.5-4.8,2.8-5.9c-9.8-1.1-20-4.9-20-21.7c0-4.8,1.7-8.7,4.5-11.8c-0.5-1.1-2-5.6,0.4-11.6c0,0,3.7-1.2,12.1,4.5
      	c3.5-1,7.3-1.5,11-1.5s7.5,0.5,11,1.5C69.3,22.8,73,24,73,24c2.4,6,0.9,10.5,0.4,11.6c2.8,3.1,4.5,7,4.5,11.8
      	c0,16.9-10.3,20.6-20.1,21.7c1.6,1.4,3,4,3,8.1c0,5.9-0.1,10.6-0.1,12c0,1.2,0.8,2.5,3,2.1C81.4,85.7,94,69.3,94,49.9
      	C94,25.7,74.3,6,50,6z"/>
    </symbol>

    <symbol id="icon-linkedin">
      <path d="M50,6C25.7,6,6,25.7,6,50s19.7,44,44,44s44-19.7,44-44S74.3,6,50,6z M38.8,70.7c-3.3,0-6.5,0-9.8,0
      	c0-9.9,0-19.8,0-29.7c3.3,0,6.5,0,9.8,0C38.8,50.9,38.8,60.8,38.8,70.7z M39.4,33c-0.6,2.3-2.7,3.7-5.5,3.8c-3.9,0-6.5-3.3-5.2-6.8
      	c0.9-2.7,4.1-4.1,7.3-3.2C38.6,27.6,40.1,30.3,39.4,33z M74.7,69.9c0,0.2,0,0.5-0.1,0.8c-3.3,0-6.5,0-9.8,0c0-0.4-0.1-0.7-0.1-1.1
      	c0-4.8,0-9.6,0-14.4c0-1.1-0.1-2.2-0.3-3.3c-0.4-1.8-1.3-3.2-3.2-3.6c-2-0.5-3.9,0-5.3,1.5c-1.1,1.1-1.6,2.5-1.5,4.1
      	c0,5.3,0,10.5,0,15.8c0,0.3,0,0.7,0,1.1c-3.3,0-6.5,0-9.9,0c0-9.9,0-19.8,0-29.7c3.3,0,6.5,0,9.8,0c0,1.3,0,2.6,0,4
      	c0.2-0.3,0.3-0.4,0.4-0.5c2.7-3.8,6.5-4.8,10.9-4.1c4.2,0.7,7,3.2,8.2,7.3c0.6,1.8,0.8,3.8,0.9,5.7C74.8,58.9,74.7,64.4,74.7,69.9z"
      	/>
    </symbol>

    <symbol id="icon-instagram">
      <path d="M50,6C25.7,6,6,25.7,6,50s19.7,44,44,44s44-19.7,44-44S74.3,6,50,6z M77,50C77,50,76.9,50,77,50
      	c-0.1,3.3,0,6.6-0.1,9.8c0,2.2-0.2,4.5-0.9,6.6c-1.7,5.3-5.3,8.6-10.7,9.9c-1.8,0.4-3.7,0.6-5.6,0.6C55,77,50.2,77,45.4,77
      	c-2.3,0-4.7,0-7-0.1c-2.9-0.1-5.6-0.7-8.1-2.1c-3.4-2-5.6-5-6.6-8.8c-0.5-2-0.7-4-0.7-6c0-6.1-0.1-12.1-0.1-18.2
      	c0-2.1,0.1-4.1,0.4-6.2c0.8-4.4,2.9-7.9,6.8-10.3c1.9-1.1,4-1.7,6.2-2c2.6-0.3,5.3-0.3,7.9-0.3c4.5,0,9.1,0,13.6,0
      	c2.1,0,4.3,0.1,6.4,0.4c4.7,0.8,8.3,3.2,10.6,7.4c1,1.9,1.6,4,1.7,6.2c0.2,2.2,0.2,4.4,0.3,6.6C77,45.7,77,47.9,77,50z"/>
      <g>
      	<path d="M72,39.1c0-1.3-0.2-2.6-0.5-3.9c-0.8-3.1-2.7-5.3-5.7-6.4c-1.6-0.6-3.3-0.8-5-0.9c-2.6-0.1-5.2-0.1-7.8-0.1
      		c-4.2,0-8.3,0-12.5,0.1c-1.5,0-3,0.1-4.5,0.4c-3.9,0.7-6.6,3-7.7,6.9c-0.5,1.7-0.6,3.4-0.6,5.2c0,6.5,0,12.9,0,19.4
      		c0,1.6,0.1,3.2,0.5,4.8c0.7,2.8,2.2,4.9,4.7,6.3c1.6,0.8,3.3,1.2,5.1,1.3c2.3,0.1,4.7,0.2,7,0.2c4.7,0,9.4,0,14.1-0.1
      		c1.5,0,3.1-0.1,4.6-0.4c4.1-0.7,6.7-3.1,7.7-7.1c0.5-1.7,0.5-3.5,0.6-5.3c0.1-3.1,0.1-6.2,0.1-10.1C72.2,46.3,72.1,42.7,72,39.1z
      		 M50,63.9c-7.7,0-13.9-6.2-13.9-13.9S42.3,36.1,50,36.1S63.9,42.3,63.9,50C63.8,57.7,57.6,63.9,50,63.9z M64.4,38.8
      		c-1.8,0-3.2-1.5-3.2-3.2c0-1.8,1.4-3.2,3.2-3.2c1.8,0,3.2,1.4,3.2,3.2C67.6,37.3,66.2,38.8,64.4,38.8z"/>
      	<path d="M50.1,40.9c-5,0-9.1,4-9.1,8.9c0,5,4,9.1,9,9.2c5,0,9.1-4,9.1-9C59,45,55,41,50.1,40.9z"/>
      </g>
    </symbol>
</svg>
